<?xml version="1.0" encoding="UTF-8" standalone="no"?>
<!DOCTYPE svg PUBLIC "-//W3C//DTD SVG 1.1//EN" "http://www.w3.org/Graphics/SVG/1.1/DTD/svg11.dtd">
<svg width="100%" height="100%" viewBox="0 0 394 126" version="1.1" xmlns="http://www.w3.org/2000/svg" xmlns:xlink="http://www.w3.org/1999/xlink" xml:space="preserve" xmlns:serif="http://www.serif.com/" style="fill-rule:evenodd;clip-rule:evenodd;stroke-linejoin:round;stroke-miterlimit:2;">
    <g transform="matrix(1,0,0,1,-553.961,-237.45)">
        <g transform="matrix(1.69814,0,0,1.69814,377.646,-219.039)">
            <g transform="matrix(0.397128,0,0,0.397128,30.8064,205.58)">
                <g>
                    <path d="M242.002,212.857C248.978,213.844 254.727,215.962 259.248,219.211C263.769,222.459 267.167,228.917 269.441,238.584C271.612,247.627 273.915,253.591 276.35,256.476C278.785,259.36 282.204,260.932 286.607,261.192C289.042,261.348 290.26,262.125 290.26,263.524C290.26,265.026 288.291,265.777 284.354,265.777L254.436,265C251.327,261.887 249.203,256.335 248.063,248.345C246.613,238.123 245.11,230.91 243.556,226.707C242.002,222.505 239.671,219.495 236.562,217.679C233.454,215.863 229.853,214.955 225.761,214.955C224.569,214.955 222.937,215.033 220.865,215.188C220.865,233.424 220.93,244.653 221.059,248.875C221.189,253.097 222.031,256.128 223.585,257.967C225.139,259.806 228.092,260.83 232.444,261.037C234.775,261.192 235.941,261.969 235.941,263.368C235.941,264.767 234.93,265.466 232.91,265.466L209.053,264.845C205.841,264.845 201.723,264.974 196.697,265.233C192.087,265.492 189.16,265.622 187.916,265.622C185.792,265.622 184.73,264.87 184.73,263.368C184.73,261.918 185.663,261.192 187.528,261.192C190.429,261.192 193.11,260.467 195.571,259.016C198.031,257.566 199.262,251.427 199.262,240.599L199.184,226.145L199.262,198.247C199.262,183.845 198.627,175.051 197.358,171.865C196.089,168.679 192.682,167.034 187.139,166.93C184.963,166.879 183.875,166.127 183.875,164.677C183.875,163.175 185.326,162.423 188.227,162.423C202.836,162.423 215.218,162.112 225.372,161.491C229.879,161.18 233.946,161.025 237.573,161.025C249.333,161.025 258.554,163.369 265.237,168.057C271.92,172.746 275.262,178.872 275.262,186.436C275.262,191.513 273.682,196.072 270.521,200.112C267.361,204.153 263.411,207.158 258.671,209.127C253.93,211.095 248.374,212.339 242.002,212.857ZM220.865,209.593C222.212,209.645 223.222,209.671 223.896,209.671C228.403,209.671 232.949,208.829 237.534,207.145C242.119,205.461 245.357,202.768 247.247,199.063C249.138,195.359 250.084,191.409 250.084,187.213C250.084,180.737 248.167,175.686 244.333,172.059C240.5,168.433 235.552,166.62 229.491,166.62C226.952,166.62 224.077,167.086 220.865,168.018L220.865,209.593Z" style="fill:rgb(64,64,64);fill-rule:nonzero;"/>
                    <path d="M317.225,229.564C317.173,231.067 317.147,232.155 317.147,232.828C317.147,240.185 318.948,246.414 322.548,251.517C326.149,256.62 331.005,259.172 337.119,259.172C343.387,259.172 349.552,256.452 355.613,251.012C356.857,249.924 357.738,249.38 358.256,249.38C359.603,249.38 360.276,250.106 360.276,251.556C360.276,252.696 358.722,254.742 355.613,257.695C352.505,260.648 348.697,262.876 344.19,264.378C339.683,265.881 335.02,266.632 330.202,266.632C319.634,266.632 311.358,263.407 305.374,256.957C299.391,250.507 296.399,242.905 296.399,234.149C296.399,223.633 299.831,214.813 306.695,207.689C313.56,200.566 322.121,197.004 332.378,197.004C342.014,197.004 349.358,200.242 354.409,206.718C359.46,213.194 361.986,219.359 361.986,225.213C361.986,227.078 361.494,228.192 360.509,228.554C359.525,228.917 356.339,229.098 350.951,229.098L317.225,229.564ZM317.691,223.892C325.359,223.995 329.788,224.047 330.98,224.047C336.834,224.047 340.421,223.633 341.742,222.804C343.063,221.975 343.724,220.291 343.724,217.753C343.724,213.504 342.506,209.748 340.072,206.485C337.637,203.221 334.736,201.589 331.368,201.589C323.39,201.589 318.831,209.023 317.691,223.892Z" style="fill:rgb(64,64,64);fill-rule:nonzero;"/>
                    <g transform="matrix(1,0,0,1,0,-25.1808)">
                        <path d="M428.039,203.843C434.152,198.455 439.488,195.761 444.047,195.761C447.104,195.761 449.603,196.641 451.546,198.403C453.489,200.164 454.46,202.185 454.46,204.464C454.46,206.381 453.787,208.13 452.44,209.71C451.093,211.29 449.254,212.08 446.922,212.08C443.658,212.08 441.301,210.318 439.851,206.796C438.866,204.464 437.908,203.299 436.975,203.299C435.888,203.299 433.841,204.542 430.836,207.029C433.582,211.173 434.955,215.628 434.955,220.395C434.955,225.264 433.556,229.733 430.759,233.8C427.961,237.866 424.581,240.755 420.618,242.464C416.654,244.174 411.02,245.365 403.716,246.039C397.447,246.609 393.639,247.567 392.292,248.914C390.894,250.313 390.194,251.867 390.194,253.577C390.194,255.649 391.619,256.996 394.468,257.618C397.266,258.239 405.011,258.731 417.703,259.094C437.183,259.716 446.922,266.114 446.922,278.288C446.922,286.577 443.283,293.455 436.004,298.92C428.725,304.386 417.729,307.119 403.016,307.119C391.93,307.119 383.926,305.5 379.004,302.262C374.082,299.024 371.622,295.229 371.622,290.877C371.622,286.267 373.629,282.368 377.644,279.182C381.659,275.996 387.682,273.496 395.712,271.683C389.599,271.062 385.014,269.73 381.957,267.685C378.9,265.641 377.372,262.859 377.372,259.341C377.372,255.615 378.797,252.484 381.646,249.948C384.496,247.412 388.744,245.472 394.391,244.126C388.485,242.312 384.042,239.669 381.063,236.195C378.085,232.722 376.595,228.393 376.595,223.209C376.595,215.692 379.6,209.381 385.609,204.275C391.619,199.169 399.027,196.616 407.834,196.616C412.031,196.616 415.813,197.211 419.18,198.403C422.547,199.594 425.5,201.408 428.039,203.843ZM395.245,220.121C395.245,226.817 396.372,231.995 398.626,235.654C400.879,239.314 403.56,241.143 406.669,241.143C409.881,241.143 412.29,239.573 413.896,236.433C415.502,233.292 416.305,228.582 416.305,222.301C416.305,215.657 415.333,210.44 413.391,206.651C411.448,202.862 408.948,200.967 405.892,200.967C402.783,200.967 400.232,202.68 398.237,206.106C396.243,209.532 395.245,214.203 395.245,220.121ZM386.93,288.857C386.93,292.38 388.679,295.462 392.176,298.104C395.673,300.746 400.607,302.067 406.98,302.067C414.699,302.067 421.11,300.306 426.213,296.783C431.316,293.26 433.867,289.09 433.867,284.272C433.867,280.387 431.821,277.524 427.728,275.685C423.635,273.846 418.377,272.926 411.953,272.926C404.337,272.926 398.263,274.442 393.73,277.472C389.197,280.503 386.93,284.298 386.93,288.857Z" style="fill:rgb(64,64,64);fill-rule:nonzero;"/>
                    </g>
                    <path d="M487.798,170.427C487.798,173.484 486.697,176.113 484.495,178.315C482.293,180.517 479.664,181.618 476.607,181.618C473.499,181.618 470.857,180.517 468.681,178.315C466.505,176.113 465.417,173.484 465.417,170.427C465.417,167.319 466.505,164.677 468.681,162.501C470.857,160.325 473.499,159.237 476.607,159.237C479.664,159.237 482.293,160.325 484.495,162.501C486.697,164.677 487.798,167.319 487.798,170.427ZM488.885,196.693C489.093,203.946 489.196,216.872 489.196,235.47L488.963,252.178C488.963,255.545 489.52,257.799 490.634,258.939C491.748,260.078 493.574,260.83 496.112,261.192C499.014,261.555 500.464,262.384 500.464,263.679C500.464,265.078 499.324,265.777 497.045,265.777C495.957,265.777 494.066,265.699 491.372,265.544C485.673,265.181 480.027,265 474.431,265C471.686,265 468.888,265.144 466.039,265.432C464.329,265.662 463.164,265.777 462.542,265.777C460.262,265.777 459.123,265.078 459.123,263.679C459.123,262.332 460.625,261.529 463.63,261.27C467.619,260.907 469.847,259.573 470.313,257.268C470.779,254.963 471.012,250.287 471.012,243.241C471.012,234.123 470.87,225.744 470.585,218.102C470.3,210.461 469.769,206.096 468.992,205.008C468.215,203.92 466.194,203.195 462.93,202.832C460.392,202.573 459.123,201.822 459.123,200.579C459.123,199.335 460.418,198.61 463.008,198.403L464.64,198.247L488.885,196.693Z" style="fill:rgb(64,64,64);fill-rule:nonzero;"/>
                    <path d="M563.409,243.319C563.409,247.049 562.438,250.676 560.495,254.198C558.552,257.721 555.625,260.635 551.714,262.941C547.802,265.246 543.23,266.399 537.998,266.399C531.47,266.399 525.953,265.052 521.446,262.358C519.477,261.218 518.208,260.648 517.638,260.648C516.965,260.648 516.446,261.081 516.084,261.946C515.255,263.982 514.271,265 513.131,265C512.457,265 511.978,264.742 511.693,264.225C511.408,263.709 511.175,261.398 510.994,257.292C510.813,253.186 510.722,248.318 510.722,242.688C510.722,240.518 511.344,239.434 512.587,239.434C513.83,239.434 515.151,241.04 516.55,244.252C521.524,255.908 528.31,261.736 536.91,261.736C539.915,261.736 542.466,260.959 544.564,259.405C546.663,257.851 547.712,255.597 547.712,252.644C547.712,250.157 546.74,248.02 544.798,246.233C542.855,244.446 539.138,242.205 533.646,239.511C525.357,235.419 519.684,231.844 516.628,228.787C513.519,225.731 511.965,221.664 511.965,216.587C511.965,210.733 514.219,205.98 518.726,202.327C523.233,198.675 528.776,196.849 535.356,196.849C540.588,196.849 545.898,198.403 551.286,201.511C552.012,201.926 552.607,202.133 553.074,202.133C553.747,202.133 554.265,201.563 554.628,200.423C555.146,198.973 555.897,198.247 556.881,198.247C557.555,198.247 558.021,198.481 558.28,198.947C558.539,199.413 558.902,201.835 559.368,206.213C559.834,210.59 560.067,214.23 560.067,217.131C560.067,219.151 559.472,220.162 558.28,220.162C557.037,220.162 555.768,218.711 554.472,215.81C550.069,206.174 543.723,201.356 535.434,201.356C532.429,201.356 529.994,202.107 528.129,203.609C526.264,205.112 525.331,206.718 525.331,208.427C525.331,210.603 526.523,212.598 528.906,214.411C531.289,216.276 535.926,218.789 542.816,221.949C548.722,224.643 552.828,226.728 555.133,228.204C557.438,229.681 559.394,231.805 561,234.577C562.606,237.348 563.409,240.262 563.409,243.319Z" style="fill:rgb(64,64,64);fill-rule:nonzero;"/>
                    <path d="M605.139,198.014C608.299,197.859 613.143,197.781 619.671,197.781C622.624,197.781 625.059,198.04 626.975,198.558C626.198,202.444 625.512,204.516 624.916,204.775C624.32,205.034 617.728,205.526 605.139,206.252L604.284,240.521C604.284,245.391 604.53,248.966 605.022,251.245C605.515,253.525 606.641,255.442 608.403,256.996C610.164,258.55 612.444,259.327 615.241,259.327C617.624,259.327 621.018,258.058 625.421,255.519C626.095,255.157 626.665,254.975 627.131,254.975C628.115,254.975 628.607,255.494 628.607,256.53C628.607,258.032 626.509,260.078 622.313,262.669C618.117,265.259 613.195,266.554 607.548,266.554C600.865,266.554 595.62,264.922 591.812,261.658C588.004,258.395 586.1,251.504 586.1,240.988C586.1,229.383 586.307,217.804 586.722,206.252C581.593,206.252 577.967,206.122 575.843,205.863C573.718,205.604 572.656,204.853 572.656,203.609C572.656,202.573 573.874,201.744 576.309,201.123C581.127,200.035 585.44,198.066 589.247,195.217C593.055,192.367 596.306,187.834 599,181.618C600.088,179.079 600.826,177.538 601.215,176.994C601.603,176.45 602.16,176.178 602.885,176.178C604.388,176.178 605.139,177.421 605.139,179.908L605.139,198.014Z" style="fill:rgb(64,64,64);fill-rule:nonzero;"/>
                    <path d="M661.789,212.391C664.38,207.158 667.359,203.247 670.726,200.656C674.093,198.066 677.849,196.771 681.994,196.771C685.931,196.771 689.078,197.911 691.436,200.19C693.793,202.47 694.971,205.319 694.971,208.738C694.971,211.432 694.13,213.725 692.446,215.616C690.762,217.506 688.703,218.452 686.268,218.452C684.455,218.452 682.952,217.986 681.761,217.053C680.569,216.121 679.3,214.463 677.953,212.08C676.088,208.661 674.456,206.951 673.057,206.951C671.14,206.951 668.965,208.891 666.53,212.771C664.095,216.65 662.877,224.178 662.877,235.353C662.877,249.475 663.357,257.326 664.315,258.903C665.273,260.481 667.384,261.27 670.648,261.27C673.498,261.27 674.922,262.047 674.922,263.601C674.922,265.052 673.524,265.777 670.726,265.777C669.172,265.777 666.918,265.636 663.965,265.353C661.271,265.118 658.733,265 656.35,265C651.221,265 646.144,265.181 641.119,265.544C638.995,265.699 637.751,265.777 637.389,265.777C635.213,265.777 634.125,264.961 634.125,263.328C634.125,261.906 635.394,261.142 637.933,261.037C640.419,260.933 642.155,260.351 643.139,259.291C644.123,258.23 644.616,255.915 644.616,252.345L644.926,232.944C644.926,229.012 644.771,224.123 644.46,218.276C644.149,212.43 643.864,208.951 643.605,207.839C643.346,206.726 642.686,205.73 641.624,204.851C640.562,203.971 639.124,203.454 637.311,203.299C635.446,203.091 634.267,202.845 633.775,202.56C633.283,202.275 633.037,201.693 633.037,200.812C633.037,199.413 634.332,198.688 636.922,198.636C641.688,198.584 649.796,197.963 661.245,196.771L661.789,212.391Z" style="fill:rgb(64,64,64);fill-rule:nonzero;"/>
                    <path d="M736.468,257.618C733.256,260.674 730.018,262.967 726.755,264.495C723.491,266.023 720.201,266.787 716.885,266.787C711.601,266.787 707.521,265.191 704.646,262C701.771,258.808 700.333,254.929 700.333,250.361C700.333,246.832 701.199,243.679 702.931,240.903C704.663,238.126 706.809,235.972 709.368,234.441C711.927,232.91 716.153,231.081 722.047,228.952C727.01,227.188 730.332,225.8 732.012,224.788C733.693,223.776 735.102,222.299 736.239,220.356C737.376,218.413 737.945,215.895 737.945,212.802C737.945,209.399 737.094,206.68 735.392,204.643C733.69,202.607 731.343,201.589 728.351,201.589C725.772,201.589 723.941,202.234 722.858,203.523C721.775,204.864 720.95,207.004 720.382,209.944C719.191,215.823 716.005,218.763 710.824,218.763C708.7,218.763 706.887,218.141 705.384,216.898C703.882,215.654 703.131,213.867 703.131,211.536C703.131,206.562 705.838,202.845 711.252,200.384C716.665,197.924 723.128,196.693 730.64,196.693C737.116,196.693 742.387,197.678 746.454,199.646C750.521,201.615 753.124,203.894 754.264,206.485C755.404,209.075 755.973,213.116 755.973,218.607L755.818,237.025C755.818,246.712 756.142,252.929 756.789,255.675C757.437,258.421 758.823,259.793 760.947,259.793C761.258,259.793 761.672,259.768 762.19,259.716C763.226,259.612 763.926,259.56 764.288,259.56C766.412,259.56 767.474,260.156 767.474,261.348C767.474,262.125 767.034,262.785 766.153,263.329C765.273,263.873 762.618,264.56 758.188,265.389C753.759,266.217 749.757,266.632 746.182,266.632C742.607,266.632 740.16,265.951 738.838,264.59C737.517,263.229 736.727,260.905 736.468,257.618ZM737.479,226.456C736.235,227.962 733.256,229.962 728.542,232.454C724.242,234.739 721.367,236.765 719.916,238.531C718.466,240.349 717.74,242.971 717.74,246.399C717.74,250.035 718.504,252.8 720.033,254.696C721.561,256.592 723.439,257.54 725.667,257.54C728.671,257.54 731.469,256.151 734.059,253.372C736.65,250.594 737.945,245.698 737.945,238.687C737.945,236.505 737.789,232.428 737.479,226.456Z" style="fill:rgb(64,64,64);fill-rule:nonzero;"/>
                </g>
            </g>
            <g transform="matrix(0.374658,0,0,0.374658,35.6284,235.809)">
                <path d="M196.455,238.331C198.227,236.413 200.018,234.981 201.827,234.034C203.636,233.088 205.476,232.614 207.346,232.614C208.676,232.614 210.079,232.885 211.556,233.426C213.032,233.967 214.645,235.233 216.392,237.225C218.161,235.676 219.979,234.514 221.846,233.739C223.713,232.965 225.63,232.577 227.596,232.577C230.961,232.577 233.43,233.488 235.003,235.31C236.551,237.157 237.325,239.89 237.325,243.509L237.14,255.991C237.14,259.512 237.311,261.537 237.653,262.066C237.994,262.595 238.921,262.971 240.434,263.193C241.287,263.34 241.714,263.672 241.714,264.189C241.714,264.951 241.211,265.332 240.205,265.332C240.033,265.332 239.788,265.318 239.469,265.29C237.407,265.097 235.162,265 232.733,265C231.408,265 229.813,265.069 227.948,265.207C226.794,265.29 226.132,265.332 225.96,265.332C224.733,265.332 224.12,264.988 224.12,264.299C224.12,263.684 224.525,263.328 225.337,263.229C226.739,263.032 227.599,262.786 227.919,262.491C228.239,262.195 228.484,261.056 228.657,259.074C228.829,257.092 228.915,253.75 228.915,249.047C228.915,244.738 228.804,241.783 228.583,240.182C228.362,238.582 227.857,237.357 227.071,236.507C226.284,235.658 225.3,235.233 224.12,235.233C223.062,235.233 221.986,235.633 220.892,236.432C219.798,237.231 218.673,238.442 217.517,240.065C216.755,243.877 216.374,249.356 216.374,256.502C216.374,259.533 216.595,261.369 217.038,262.01C217.48,262.65 218.488,263.057 220.062,263.229C220.997,263.328 221.464,263.648 221.464,264.189C221.464,264.951 220.874,265.332 219.693,265.332C219.423,265.332 218.476,265.277 216.853,265.168C214.615,265.032 213.029,264.963 212.095,264.963C210.496,264.963 208.603,265.059 206.414,265.25C205.849,265.305 205.418,265.332 205.123,265.332C204.041,265.332 203.5,264.975 203.5,264.262C203.5,263.623 204.029,263.266 205.087,263.193C206.488,263.094 207.373,262.312 207.742,260.847C208.111,259.382 208.296,254.254 208.296,245.463C208.296,241.844 207.976,239.351 207.337,237.984C206.697,236.617 205.652,235.934 204.201,235.934C201.693,235.934 199.713,237.262 198.263,239.918C196.812,242.573 196.086,247.708 196.086,255.321C196.086,258.893 196.314,261.08 196.769,261.881C197.224,262.682 198.078,263.119 199.332,263.193C200.267,263.242 200.734,263.561 200.734,264.152C200.734,264.939 200.23,265.332 199.222,265.332C199.025,265.332 198.681,265.291 198.189,265.209C196.91,265.045 194.722,264.963 191.623,264.963C188.869,264.963 186.742,265.059 185.242,265.25C184.652,265.305 184.209,265.332 183.914,265.332C183.102,265.332 182.697,264.975 182.697,264.262C182.697,263.598 183.152,263.242 184.062,263.193C185.537,263.119 186.447,262.86 186.791,262.417C187.135,261.974 187.394,260.737 187.566,258.705C187.738,256.674 187.824,252.851 187.824,247.237C187.824,242.854 187.769,240.108 187.658,239C187.547,237.892 187.142,237.042 186.441,236.451C185.74,235.86 184.775,235.553 183.545,235.528C182.537,235.504 182.033,235.172 182.033,234.532C182.033,233.893 182.537,233.549 183.545,233.499C184.848,233.426 186.779,233.26 189.336,233.001C191.894,232.743 194.107,232.614 195.976,232.614C196.271,233.327 196.418,234.508 196.418,236.155C196.418,236.573 196.431,237.299 196.455,238.331Z" style="fill:rgb(64,64,64);fill-rule:nonzero;"/>
                <path d="M256.1,248.18C256.075,248.893 256.063,249.41 256.063,249.729C256.063,253.221 256.917,256.178 258.626,258.6C260.336,261.022 262.641,262.234 265.543,262.234C268.518,262.234 271.444,260.943 274.321,258.361C274.912,257.844 275.33,257.586 275.576,257.586C276.215,257.586 276.535,257.93 276.535,258.619C276.535,259.16 275.797,260.131 274.321,261.533C272.846,262.934 271.039,263.992 268.899,264.705C266.76,265.418 264.547,265.775 262.26,265.775C257.243,265.775 253.315,264.244 250.475,261.182C247.634,258.121 246.214,254.512 246.214,250.356C246.214,245.364 247.843,241.178 251.102,237.797C254.36,234.415 258.424,232.725 263.293,232.725C267.866,232.725 271.352,234.262 273.75,237.336C276.147,240.409 277.346,243.336 277.346,246.114C277.346,247 277.112,247.528 276.645,247.7C276.178,247.873 274.666,247.959 272.108,247.959L256.1,248.18ZM256.321,245.487C259.96,245.537 262.063,245.561 262.629,245.561C265.407,245.561 267.11,245.364 267.737,244.971C268.364,244.577 268.678,243.778 268.678,242.573C268.678,240.557 268.1,238.774 266.944,237.225C265.788,235.676 264.411,234.901 262.813,234.901C259.026,234.901 256.862,238.43 256.321,245.487Z" style="fill:rgb(64,64,64);fill-rule:nonzero;"/>
                <path d="M293.355,233.315C293.478,235.848 293.539,239.303 293.539,243.68C293.539,250.319 293.6,254.567 293.723,256.424C293.846,258.281 294.332,259.676 295.18,260.611C296.029,261.545 296.994,262.012 298.076,262.012C299.355,262.012 300.652,261.533 301.967,260.574C303.283,259.615 304.254,258.361 304.881,256.811C305.508,255.262 305.822,252.729 305.822,249.213L305.896,241.061C305.896,238.897 305.779,237.471 305.545,236.782C305.312,236.094 304.519,235.725 303.166,235.676C301.691,235.602 300.953,235.221 300.953,234.532C300.953,234.114 301.131,233.85 301.488,233.739C301.844,233.629 302.785,233.573 304.31,233.573C307.728,233.573 310.912,233.487 313.863,233.315C313.962,234.274 314.011,239.524 314.011,249.065C314.011,256.738 314.084,260.924 314.232,261.625C314.38,262.326 315.179,262.738 316.63,262.861C317.49,262.959 317.921,263.316 317.921,263.93C317.921,264.643 317.429,265 316.445,265C316.248,265 315.941,264.988 315.523,264.963C314.834,264.914 314.023,264.889 313.089,264.889C309.818,264.889 308.011,264.902 307.666,264.926C307.273,264.951 306.941,264.963 306.67,264.963C306.203,264.963 305.914,264.883 305.804,264.723C305.693,264.564 305.638,264.09 305.638,263.303C305.638,262.025 305.724,260.734 305.896,259.43C304.199,261.496 302.41,263.045 300.529,264.078C298.648,265.111 296.674,265.627 294.609,265.627C288.338,265.627 285.203,262.111 285.203,255.078L285.203,243.68C285.203,239.745 285.061,237.44 284.779,236.764C284.496,236.088 283.752,235.663 282.547,235.491C281.465,235.344 280.924,235.024 280.924,234.532C280.924,233.868 281.404,233.536 282.363,233.536C288.953,233.536 292.617,233.463 293.355,233.315Z" style="fill:rgb(64,64,64);fill-rule:nonzero;"/>
                <path d="M356.946,233.204C358.446,233.131 360.745,233.094 363.844,233.094C365.245,233.094 366.401,233.217 367.311,233.463C366.942,235.307 366.616,236.29 366.333,236.413C366.051,236.536 362.921,236.77 356.946,237.114L356.54,253.381C356.54,255.692 356.657,257.389 356.891,258.471C357.124,259.553 357.659,260.463 358.495,261.201C359.331,261.938 360.413,262.307 361.741,262.307C362.872,262.307 364.483,261.705 366.573,260.5C366.893,260.328 367.163,260.242 367.385,260.242C367.852,260.242 368.085,260.488 368.085,260.979C368.085,261.693 367.09,262.664 365.098,263.893C363.106,265.123 360.77,265.738 358.089,265.738C354.917,265.738 352.427,264.963 350.62,263.414C348.813,261.865 347.909,258.594 347.909,253.602C347.909,248.094 348.007,242.598 348.204,237.114C345.769,237.114 344.048,237.053 343.04,236.93C342.032,236.807 341.528,236.45 341.528,235.86C341.528,235.368 342.105,234.975 343.261,234.68C345.548,234.163 347.595,233.229 349.403,231.876C351.21,230.524 352.753,228.372 354.032,225.421C354.548,224.216 354.899,223.485 355.083,223.227C355.268,222.968 355.532,222.839 355.876,222.839C356.589,222.839 356.946,223.43 356.946,224.61L356.946,233.204Z" style="fill:rgb(64,64,64);fill-rule:nonzero;"/>
                <path d="M382.36,248.18C382.336,248.893 382.323,249.41 382.323,249.729C382.323,253.221 383.178,256.178 384.887,258.6C386.596,261.022 388.901,262.234 391.803,262.234C394.779,262.234 397.705,260.943 400.582,258.361C401.172,257.844 401.59,257.586 401.836,257.586C402.475,257.586 402.795,257.93 402.795,258.619C402.795,259.16 402.057,260.131 400.582,261.533C399.107,262.934 397.299,263.992 395.16,264.705C393.02,265.418 390.807,265.775 388.52,265.775C383.504,265.775 379.575,264.244 376.735,261.182C373.895,258.121 372.475,254.512 372.475,250.356C372.475,245.364 374.104,241.178 377.362,237.797C380.621,234.415 384.684,232.725 389.553,232.725C394.127,232.725 397.613,234.262 400.01,237.336C402.408,240.409 403.607,243.336 403.607,246.114C403.607,247 403.373,247.528 402.906,247.7C402.439,247.873 400.926,247.959 398.369,247.959L382.36,248.18ZM382.582,245.487C386.221,245.537 388.324,245.561 388.889,245.561C391.668,245.561 393.371,245.364 393.998,244.971C394.625,244.577 394.938,243.778 394.938,242.573C394.938,240.557 394.361,238.774 393.205,237.225C392.049,235.676 390.672,234.901 389.074,234.901C385.287,234.901 383.123,238.43 382.582,245.487Z" style="fill:rgb(64,64,64);fill-rule:nonzero;"/>
                <path d="M421.054,238.331C422.826,236.413 424.616,234.981 426.425,234.034C428.235,233.088 430.074,232.614 431.945,232.614C433.274,232.614 434.677,232.885 436.154,233.426C437.631,233.967 439.243,235.233 440.991,237.225C442.76,235.676 444.578,234.514 446.445,233.739C448.312,232.965 450.228,232.577 452.194,232.577C455.56,232.577 458.029,233.488 459.601,235.31C461.149,237.157 461.923,239.89 461.923,243.509L461.739,255.991C461.739,259.512 461.91,261.537 462.251,262.066C462.593,262.595 463.52,262.971 465.032,263.193C465.886,263.34 466.313,263.672 466.313,264.189C466.313,264.951 465.81,265.332 464.803,265.332C464.632,265.332 464.386,265.318 464.067,265.29C462.006,265.097 459.761,265 457.332,265C456.006,265 454.411,265.069 452.546,265.207C451.393,265.29 450.73,265.332 450.558,265.332C449.332,265.332 448.718,264.988 448.718,264.299C448.718,263.684 449.124,263.328 449.935,263.229C451.337,263.032 452.198,262.786 452.517,262.491C452.837,262.195 453.083,261.056 453.255,259.074C453.427,257.092 453.513,253.75 453.513,249.047C453.513,244.738 453.403,241.783 453.181,240.182C452.96,238.582 452.456,237.357 451.669,236.507C450.882,235.658 449.898,235.233 448.718,235.233C447.661,235.233 446.585,235.633 445.491,236.432C444.396,237.231 443.271,238.442 442.116,240.065C441.353,243.877 440.972,249.356 440.972,256.502C440.972,259.533 441.193,261.369 441.636,262.01C442.079,262.65 443.087,263.057 444.661,263.229C445.595,263.328 446.062,263.648 446.062,264.189C446.062,264.951 445.472,265.332 444.292,265.332C444.021,265.332 443.075,265.277 441.452,265.168C439.214,265.032 437.628,264.963 436.693,264.963C435.095,264.963 433.201,265.059 431.013,265.25C430.447,265.305 430.017,265.332 429.722,265.332C428.64,265.332 428.099,264.975 428.099,264.262C428.099,263.623 428.628,263.266 429.685,263.193C431.087,263.094 431.972,262.312 432.341,260.847C432.71,259.382 432.894,254.254 432.894,245.463C432.894,241.844 432.574,239.351 431.935,237.984C431.296,236.617 430.251,235.934 428.8,235.934C426.291,235.934 424.312,237.262 422.861,239.918C421.41,242.573 420.685,247.708 420.685,255.321C420.685,258.893 420.912,261.08 421.367,261.881C421.822,262.682 422.677,263.119 423.931,263.193C424.865,263.242 425.332,263.561 425.332,264.152C425.332,264.939 424.828,265.332 423.82,265.332C423.623,265.332 423.279,265.291 422.787,265.209C421.509,265.045 419.32,264.963 416.222,264.963C413.467,264.963 411.34,265.059 409.84,265.25C409.25,265.305 408.808,265.332 408.512,265.332C407.701,265.332 407.295,264.975 407.295,264.262C407.295,263.598 407.75,263.242 408.66,263.193C410.135,263.119 411.045,262.86 411.39,262.417C411.734,261.974 411.992,260.737 412.164,258.705C412.336,256.674 412.422,252.851 412.422,247.237C412.422,242.854 412.367,240.108 412.256,239C412.146,237.892 411.74,237.042 411.039,236.451C410.338,235.86 409.373,235.553 408.144,235.528C407.135,235.504 406.631,235.172 406.631,234.532C406.631,233.893 407.135,233.549 408.144,233.499C409.447,233.426 411.377,233.26 413.935,233.001C416.492,232.743 418.705,232.614 420.574,232.614C420.869,233.327 421.017,234.508 421.017,236.155C421.017,236.573 421.029,237.299 421.054,238.331Z" style="fill:rgb(64,64,64);fill-rule:nonzero;"/>
                <path d="M482.137,237.408C483.465,235.896 484.879,234.762 486.379,234.006C487.879,233.25 489.465,232.872 491.137,232.872C494.58,232.872 497.856,234.391 500.967,237.428C504.078,240.465 505.633,244.356 505.633,249.102C505.633,253.553 504.088,257.408 500.997,260.666C497.906,263.924 494.255,265.553 490.044,265.553C488.541,265.553 487.088,265.338 485.684,264.908C484.28,264.477 482.913,263.832 481.583,262.971C481.583,272.789 481.856,278.514 482.4,280.146C482.944,281.778 484.403,282.644 486.777,282.742C487.643,282.767 488.075,283.099 488.075,283.738C488.075,284.402 487.498,284.734 486.342,284.734C485.678,284.734 484.657,284.7 483.28,284.633C480.403,284.454 477.895,284.365 475.756,284.365C474.305,284.365 472.546,284.451 470.481,284.623C469.473,284.697 468.833,284.734 468.563,284.734C467.284,284.734 466.645,284.414 466.645,283.775C466.645,283.185 467.333,282.828 468.71,282.705C470.948,282.484 472.288,281.113 472.731,278.592C473.173,276.072 473.395,267.459 473.395,252.754L473.175,240.729C473.175,238.393 472.894,236.881 472.333,236.192C471.771,235.504 470.88,235.098 469.66,234.975C468.732,234.876 468.268,234.532 468.268,233.942C468.268,233.229 468.795,232.872 469.85,232.872C474.191,232.872 478.286,232.774 482.137,232.577L482.211,236.293C482.211,236.442 482.186,236.813 482.137,237.408ZM495.231,250.41C495.231,245.941 494.573,242.472 493.258,240.005C491.942,237.537 490.227,236.303 488.112,236.303C485.948,236.303 484.319,237.617 483.225,240.244C482.131,242.872 481.583,246.825 481.583,252.105C481.583,256.28 482.112,259.147 483.17,260.706C484.227,262.265 485.911,263.045 488.223,263.045C490.559,263.045 492.311,261.989 493.479,259.877C494.647,257.765 495.231,254.61 495.231,250.41Z" style="fill:rgb(64,64,64);fill-rule:nonzero;"/>
                <path d="M546.503,248.328C546.503,252.852 544.818,256.873 541.449,260.389C538.08,263.906 533.802,265.664 528.613,265.664C523.842,265.664 519.834,264.189 516.588,261.238C513.342,258.287 511.719,254.352 511.719,249.434C511.719,244.442 513.434,240.403 516.865,237.317C520.295,234.231 524.47,232.688 529.388,232.688C534.38,232.688 538.48,234.145 541.689,237.059C544.898,239.973 546.503,243.729 546.503,248.328ZM536.322,250.857C536.322,246.818 535.652,243.168 534.312,239.905C532.972,236.643 531.048,235.012 528.539,235.012C526.326,235.012 524.617,236.15 523.412,238.428C522.207,240.706 521.605,243.9 521.605,248.012C521.605,252.494 522.287,256.169 523.652,259.037C525.017,261.906 526.892,263.34 529.277,263.34C531.613,263.34 533.371,262.195 534.552,259.905C535.732,257.615 536.322,254.599 536.322,250.857Z" style="fill:rgb(64,64,64);fill-rule:nonzero;"/>
                <path d="M589.807,261.496C588.282,262.947 586.745,264.035 585.196,264.76C583.647,265.486 582.085,265.848 580.512,265.848C578.003,265.848 576.067,265.091 574.702,263.576C573.337,262.061 572.655,260.219 572.655,258.052C572.655,256.376 573.066,254.88 573.888,253.562C574.71,252.244 575.728,251.222 576.943,250.495C578.158,249.768 580.164,248.9 582.962,247.89C585.317,247.052 586.894,246.393 587.692,245.913C588.489,245.432 589.158,244.731 589.698,243.809C590.238,242.887 590.508,241.692 590.508,240.224C590.508,238.608 590.104,237.317 589.296,236.351C588.488,235.384 587.374,234.901 585.954,234.901C584.73,234.901 583.861,235.207 583.347,235.819C582.833,236.455 582.441,237.471 582.171,238.867C581.606,241.658 580.094,243.053 577.634,243.053C576.626,243.053 575.766,242.758 575.052,242.168C574.339,241.577 573.983,240.729 573.983,239.622C573.983,237.262 575.268,235.497 577.837,234.329C580.407,233.161 583.475,232.577 587.04,232.577C590.114,232.577 592.616,233.044 594.547,233.979C596.477,234.913 597.713,235.995 598.254,237.225C598.795,238.454 599.065,240.372 599.065,242.979L598.991,251.721C598.991,256.32 599.145,259.27 599.452,260.574C599.76,261.877 600.418,262.529 601.426,262.529C601.573,262.529 601.77,262.516 602.016,262.492C602.508,262.443 602.84,262.418 603.012,262.418C604.02,262.418 604.524,262.701 604.524,263.266C604.524,263.635 604.315,263.949 603.897,264.207C603.479,264.465 602.219,264.791 600.116,265.184C598.014,265.578 596.114,265.775 594.418,265.775C592.721,265.775 591.559,265.452 590.932,264.805C590.305,264.159 589.93,263.056 589.807,261.496ZM590.286,246.705C589.696,247.42 588.282,248.369 586.044,249.552C584.003,250.636 582.639,251.598 581.95,252.436C581.262,253.299 580.917,254.544 580.917,256.171C580.917,257.897 581.28,259.209 582.005,260.109C582.731,261.009 583.622,261.459 584.68,261.459C586.106,261.459 587.434,260.8 588.663,259.481C589.893,258.162 590.508,255.838 590.508,252.51C590.508,251.475 590.434,249.539 590.286,246.705Z" style="fill:rgb(64,64,64);fill-rule:nonzero;"/>
                <path d="M621.566,232.577C621.664,236.02 621.713,242.155 621.713,250.983L621.603,258.914C621.603,260.512 621.867,261.582 622.396,262.123C622.924,262.664 623.791,263.02 624.996,263.193C626.373,263.365 627.062,263.758 627.062,264.373C627.062,265.037 626.521,265.369 625.439,265.369C624.922,265.369 624.025,265.332 622.746,265.258C620.041,265.086 617.361,265 614.705,265C613.402,265 612.074,265.068 610.721,265.205C609.91,265.314 609.356,265.369 609.061,265.369C607.979,265.369 607.438,265.037 607.438,264.373C607.438,263.734 608.151,263.352 609.578,263.229C611.471,263.057 612.529,262.424 612.75,261.33C612.971,260.236 613.082,258.016 613.082,254.672C613.082,250.344 613.014,246.366 612.879,242.739C612.744,239.112 612.492,237.04 612.123,236.524C611.754,236.008 610.795,235.663 609.246,235.491C608.041,235.368 607.438,235.012 607.438,234.422C607.438,233.831 608.053,233.487 609.283,233.389L610.057,233.315L621.566,232.577ZM622.627,214.761C623.466,214.761 624.205,215.075 624.846,215.702C625.487,216.329 625.807,217.036 625.807,217.823C625.807,219.323 624.513,221.02 621.925,222.913C619.903,224.389 617.993,225.864 616.193,227.339C614.393,228.815 613.198,229.553 612.606,229.553C612.31,229.553 611.996,229.405 611.663,229.11C611.33,228.815 611.164,228.532 611.164,228.262C611.164,227.991 612.267,226.214 614.473,222.932C616.68,219.649 618.319,217.466 619.392,216.384C620.464,215.302 621.543,214.761 622.627,214.761Z" style="fill:rgb(64,64,64);fill-rule:nonzero;"/>
                <path d="M638.091,251.647C634.992,233.008 633.443,222.95 633.443,221.475C633.443,219.679 634.039,218.229 635.232,217.122C636.425,216.015 637.771,215.462 639.271,215.462C640.894,215.462 642.265,216.052 643.384,217.233C644.503,218.413 645.062,219.802 645.062,221.401C645.062,222.925 643.513,233.008 640.414,251.647L638.091,251.647ZM644.398,260.574C644.398,262 643.894,263.217 642.886,264.225C641.877,265.234 640.673,265.738 639.271,265.738C637.845,265.738 636.627,265.234 635.619,264.225C634.611,263.217 634.107,262 634.107,260.574C634.107,259.172 634.611,257.967 635.619,256.959C636.627,255.951 637.845,255.447 639.271,255.447C640.673,255.447 641.877,255.951 642.886,256.959C643.894,257.967 644.398,259.172 644.398,260.574Z" style="fill:rgb(64,64,64);fill-rule:nonzero;"/>
            </g>
        </g>
    </g>
</svg>
